<mxfile host="app.diagrams.net" modified="2022-02-22T12:51:23.592Z" agent="5.0 (X11; Linux x86_64) AppleWebKit/537.36 (KHTML, like Gecko) Chrome/97.0.4692.99 Safari/537.36" etag="9haKESj2Ti2LpN-4xwtH" version="16.6.2" type="github">
  <diagram id="EhwaKsAPKIZbmOEUkj3C" name="Page-1">
    <mxGraphModel dx="1422" dy="736" grid="1" gridSize="10" guides="1" tooltips="1" connect="1" arrows="1" fold="1" page="1" pageScale="1" pageWidth="850" pageHeight="1100" math="0" shadow="0">
      <root>
        <mxCell id="0" />
        <mxCell id="1" parent="0" />
        <mxCell id="enuT8qcbY2x_6Z-qv4gx-14" style="edgeStyle=orthogonalEdgeStyle;rounded=0;orthogonalLoop=1;jettySize=auto;html=1;" edge="1" parent="1" source="enuT8qcbY2x_6Z-qv4gx-2" target="enuT8qcbY2x_6Z-qv4gx-3">
          <mxGeometry relative="1" as="geometry" />
        </mxCell>
        <mxCell id="enuT8qcbY2x_6Z-qv4gx-19" style="edgeStyle=orthogonalEdgeStyle;rounded=0;orthogonalLoop=1;jettySize=auto;html=1;exitX=1;exitY=0.5;exitDx=0;exitDy=0;entryX=0;entryY=0.5;entryDx=0;entryDy=0;" edge="1" parent="1" source="enuT8qcbY2x_6Z-qv4gx-2" target="enuT8qcbY2x_6Z-qv4gx-4">
          <mxGeometry relative="1" as="geometry" />
        </mxCell>
        <mxCell id="enuT8qcbY2x_6Z-qv4gx-20" style="edgeStyle=orthogonalEdgeStyle;rounded=0;orthogonalLoop=1;jettySize=auto;html=1;exitX=1;exitY=0.5;exitDx=0;exitDy=0;entryX=0;entryY=0.5;entryDx=0;entryDy=0;" edge="1" parent="1" source="enuT8qcbY2x_6Z-qv4gx-2" target="enuT8qcbY2x_6Z-qv4gx-11">
          <mxGeometry relative="1" as="geometry" />
        </mxCell>
        <mxCell id="enuT8qcbY2x_6Z-qv4gx-2" value="Channels" style="rounded=1;whiteSpace=wrap;html=1;" vertex="1" parent="1">
          <mxGeometry x="40" y="50" width="120" height="30" as="geometry" />
        </mxCell>
        <mxCell id="enuT8qcbY2x_6Z-qv4gx-16" style="edgeStyle=orthogonalEdgeStyle;rounded=0;orthogonalLoop=1;jettySize=auto;html=1;exitX=1;exitY=0.5;exitDx=0;exitDy=0;" edge="1" parent="1" source="enuT8qcbY2x_6Z-qv4gx-3" target="enuT8qcbY2x_6Z-qv4gx-5">
          <mxGeometry relative="1" as="geometry" />
        </mxCell>
        <mxCell id="enuT8qcbY2x_6Z-qv4gx-17" style="edgeStyle=orthogonalEdgeStyle;rounded=0;orthogonalLoop=1;jettySize=auto;html=1;exitX=1;exitY=0.5;exitDx=0;exitDy=0;entryX=0;entryY=0.5;entryDx=0;entryDy=0;" edge="1" parent="1" source="enuT8qcbY2x_6Z-qv4gx-3" target="enuT8qcbY2x_6Z-qv4gx-6">
          <mxGeometry relative="1" as="geometry" />
        </mxCell>
        <mxCell id="enuT8qcbY2x_6Z-qv4gx-18" style="edgeStyle=orthogonalEdgeStyle;rounded=0;orthogonalLoop=1;jettySize=auto;html=1;exitX=1;exitY=0.5;exitDx=0;exitDy=0;entryX=0;entryY=0.5;entryDx=0;entryDy=0;" edge="1" parent="1" source="enuT8qcbY2x_6Z-qv4gx-3" target="enuT8qcbY2x_6Z-qv4gx-7">
          <mxGeometry relative="1" as="geometry" />
        </mxCell>
        <mxCell id="enuT8qcbY2x_6Z-qv4gx-3" value="Channel Operations" style="rounded=1;whiteSpace=wrap;html=1;" vertex="1" parent="1">
          <mxGeometry x="230" y="50" width="120" height="30" as="geometry" />
        </mxCell>
        <mxCell id="enuT8qcbY2x_6Z-qv4gx-21" style="edgeStyle=orthogonalEdgeStyle;rounded=0;orthogonalLoop=1;jettySize=auto;html=1;exitX=1;exitY=0.5;exitDx=0;exitDy=0;entryX=0;entryY=0.5;entryDx=0;entryDy=0;" edge="1" parent="1" source="enuT8qcbY2x_6Z-qv4gx-4" target="enuT8qcbY2x_6Z-qv4gx-8">
          <mxGeometry relative="1" as="geometry" />
        </mxCell>
        <mxCell id="enuT8qcbY2x_6Z-qv4gx-22" style="edgeStyle=orthogonalEdgeStyle;rounded=0;orthogonalLoop=1;jettySize=auto;html=1;exitX=1;exitY=0.5;exitDx=0;exitDy=0;entryX=0;entryY=0.5;entryDx=0;entryDy=0;" edge="1" parent="1" source="enuT8qcbY2x_6Z-qv4gx-4" target="enuT8qcbY2x_6Z-qv4gx-9">
          <mxGeometry relative="1" as="geometry" />
        </mxCell>
        <mxCell id="enuT8qcbY2x_6Z-qv4gx-23" style="edgeStyle=orthogonalEdgeStyle;rounded=0;orthogonalLoop=1;jettySize=auto;html=1;exitX=1;exitY=0.5;exitDx=0;exitDy=0;entryX=0;entryY=0.5;entryDx=0;entryDy=0;" edge="1" parent="1" source="enuT8qcbY2x_6Z-qv4gx-4" target="enuT8qcbY2x_6Z-qv4gx-10">
          <mxGeometry relative="1" as="geometry" />
        </mxCell>
        <mxCell id="enuT8qcbY2x_6Z-qv4gx-4" value="Channel Type" style="rounded=1;whiteSpace=wrap;html=1;" vertex="1" parent="1">
          <mxGeometry x="230" y="200" width="120" height="30" as="geometry" />
        </mxCell>
        <mxCell id="enuT8qcbY2x_6Z-qv4gx-5" value="Add" style="rounded=1;whiteSpace=wrap;html=1;" vertex="1" parent="1">
          <mxGeometry x="400" y="50" width="120" height="30" as="geometry" />
        </mxCell>
        <mxCell id="enuT8qcbY2x_6Z-qv4gx-6" value="Remove" style="rounded=1;whiteSpace=wrap;html=1;" vertex="1" parent="1">
          <mxGeometry x="400" y="90" width="120" height="30" as="geometry" />
        </mxCell>
        <mxCell id="enuT8qcbY2x_6Z-qv4gx-7" value="Move" style="rounded=1;whiteSpace=wrap;html=1;" vertex="1" parent="1">
          <mxGeometry x="400" y="130" width="120" height="30" as="geometry" />
        </mxCell>
        <mxCell id="enuT8qcbY2x_6Z-qv4gx-8" value="Value" style="rounded=1;whiteSpace=wrap;html=1;" vertex="1" parent="1">
          <mxGeometry x="400" y="200" width="120" height="30" as="geometry" />
        </mxCell>
        <mxCell id="enuT8qcbY2x_6Z-qv4gx-9" value="RGB" style="rounded=1;whiteSpace=wrap;html=1;" vertex="1" parent="1">
          <mxGeometry x="400" y="240" width="120" height="30" as="geometry" />
        </mxCell>
        <mxCell id="enuT8qcbY2x_6Z-qv4gx-10" value="Normal" style="rounded=1;whiteSpace=wrap;html=1;" vertex="1" parent="1">
          <mxGeometry x="400" y="280" width="120" height="30" as="geometry" />
        </mxCell>
        <mxCell id="enuT8qcbY2x_6Z-qv4gx-27" style="edgeStyle=orthogonalEdgeStyle;rounded=0;orthogonalLoop=1;jettySize=auto;html=1;exitX=1;exitY=0.5;exitDx=0;exitDy=0;entryX=-0.013;entryY=0.578;entryDx=0;entryDy=0;entryPerimeter=0;" edge="1" parent="1" source="enuT8qcbY2x_6Z-qv4gx-11" target="enuT8qcbY2x_6Z-qv4gx-12">
          <mxGeometry relative="1" as="geometry" />
        </mxCell>
        <mxCell id="enuT8qcbY2x_6Z-qv4gx-11" value="Modifier" style="rounded=1;whiteSpace=wrap;html=1;" vertex="1" parent="1">
          <mxGeometry x="230" y="340" width="120" height="30" as="geometry" />
        </mxCell>
        <mxCell id="enuT8qcbY2x_6Z-qv4gx-12" value="Cuma list modifier yang available saja, pengertiannya nanti di link di sub judul yang berbeda" style="rounded=1;whiteSpace=wrap;html=1;" vertex="1" parent="1">
          <mxGeometry x="400" y="330" width="150" height="90" as="geometry" />
        </mxCell>
      </root>
    </mxGraphModel>
  </diagram>
</mxfile>
